<svg width="32" height="36" viewBox="0 0 24 27" xmlns="http://www.w3.org/2000/svg"><path fill="#b3bb68" opacity=".84" d="M9.33 6.39c2.59-2.3 4.79-6.01 8.7-5.84 2.84-.06 5 2.14 5.97 4.62v2.92c-1.6 4.04-5.48 6.44-8.27 9.59-2.43 2.1-4.29 5.43-7.72 5.94-3.63.2-6.09-4.48-3.61-7.24 2.06-2.19 3.94-4.98 6.99-5.81-.47 3.7-4.59 5.22-6.25 8.36.26.49.78 1.47 1.04 1.95.48.22 1.44.65 1.92.87 4-2.82 7.04-6.72 10.63-10 1.46-1.63 3.84-3.2 3.25-5.73-.37-2.88-4.21-4.47-6.51-2.69-3.4 2.99-6.41 6.41-9.71 9.52-1.63 1.72-3.91 3.45-3.78 6.08-.35 4.24 4.83 7.64 8.57 5.51 2.78-1.9 4.83-4.67 7.47-6.76.23.45.68 1.37.9 1.83-2.89 2.64-5.3 6.06-9.09 7.49h-3.7C3.19 26.08.9 23.85 0 20.89v-3.7c1.9-4.51 6.16-7.27 9.33-10.8z"/></svg>