<?xml version="1.0" encoding="UTF-8" ?>
<!DOCTYPE svg PUBLIC "-//W3C//DTD SVG 1.1//EN" "http://www.w3.org/Graphics/SVG/1.1/DTD/svg11.dtd">
<svg width="92pt" height="332pt" viewBox="0 0 92 332" version="1.1" xmlns="http://www.w3.org/2000/svg">
<g id="#b9c762ff">
<path fill="#b9c762" opacity="1.00" d=" M 19.94 0.00 L 20.86 0.00 C 22.65 3.36 23.93 6.95 25.72 10.31 C 24.23 10.80 22.74 11.29 21.22 11.70 C 19.83 8.69 18.37 5.70 17.31 2.55 C 17.95 2.03 19.23 0.97 19.87 0.45 L 19.94 0.00 Z" />
<path fill="#b9c762" opacity="1.00" d=" M 26.31 20.88 C 27.50 19.98 28.76 19.19 30.03 18.40 C 31.72 21.61 33.60 24.73 34.98 28.10 C 33.65 28.68 32.31 29.24 30.96 29.77 C 29.38 26.83 27.60 23.97 26.31 20.88 Z" />
<path fill="#b9c762" opacity="1.00" d=" M 36.00 37.90 C 37.36 37.32 38.72 36.74 40.09 36.19 C 41.57 39.29 43.25 42.29 44.91 45.30 C 43.50 45.93 42.08 46.56 40.64 47.12 C 39.11 44.04 37.27 41.11 36.00 37.90 Z" />
<path fill="#b9c762" opacity="1.00" d=" M 45.33 55.56 C 46.54 54.88 47.76 54.20 48.97 53.51 C 50.40 56.78 52.07 59.93 53.71 63.09 C 52.42 63.75 51.12 64.40 49.81 65.02 C 48.47 62.34 47.06 59.69 45.55 57.09 C 45.50 56.70 45.39 55.94 45.33 55.56 Z" />
<path fill="#b9c762" opacity="1.00" d=" M 54.12 74.13 C 54.58 72.39 56.59 72.69 57.95 72.22 C 59.25 75.52 61.29 78.58 61.81 82.15 C 60.48 82.42 59.15 82.69 57.82 82.94 C 56.60 80.01 54.80 77.26 54.12 74.13 Z" />
<path fill="#b9c762" opacity="1.00" d=" M 61.67 92.92 C 61.90 90.92 64.62 91.10 65.99 90.29 C 67.13 93.65 68.34 96.99 69.66 100.29 C 68.27 100.84 66.90 101.54 65.38 101.66 C 63.95 98.84 62.73 95.90 61.67 92.92 Z" />
<path fill="#b9c762" opacity="1.00" d=" M 68.39 110.80 C 69.74 110.21 71.09 109.63 72.46 109.07 C 73.94 112.35 75.22 115.74 76.13 119.23 C 74.74 119.72 73.35 120.22 71.95 120.70 C 70.99 117.32 69.72 114.05 68.39 110.80 Z" />
<path fill="#b9c762" opacity="1.00" d=" M 74.55 129.65 C 76.08 129.17 77.62 128.70 79.17 128.27 C 79.89 131.67 80.91 135.00 81.94 138.32 C 80.55 138.76 79.16 139.20 77.77 139.64 C 76.54 136.36 75.60 132.99 74.55 129.65 Z" />
<path fill="#b9c762" opacity="1.00" d=" M 79.56 148.55 C 81.11 148.45 82.67 148.37 84.23 148.31 C 84.86 151.68 85.72 155.00 86.55 158.32 C 85.00 158.45 83.45 158.58 81.90 158.69 C 81.16 155.30 80.32 151.93 79.56 148.55 Z" />
<path fill="#b9c762" opacity="1.00" d=" M 83.47 168.75 C 84.09 168.44 85.34 167.83 85.96 167.52 C 86.52 167.77 87.65 168.27 88.21 168.53 C 88.61 171.59 89.26 174.62 89.73 177.67 C 88.10 178.07 86.48 178.50 84.82 178.77 C 84.52 175.41 84.29 172.03 83.47 168.75 Z" />
<path fill="#b9c762" opacity="1.00" d=" M 85.51 187.61 C 87.00 187.52 88.47 187.63 89.92 187.93 C 90.64 191.32 90.69 194.83 90.36 198.28 C 89.01 198.33 87.67 198.39 86.32 198.44 C 86.16 194.82 85.57 191.24 85.51 187.61 Z" />
<path fill="#b9c762" opacity="1.00" d=" M 85.62 208.35 C 87.17 208.01 88.72 207.70 90.28 207.43 C 90.24 208.62 90.19 209.82 90.12 211.01 C 89.49 213.40 89.58 215.89 89.55 218.34 C 88.09 218.36 86.64 218.37 85.20 218.39 C 85.19 215.04 85.47 211.70 85.62 208.35 Z" />
<path fill="#b9c762" opacity="1.00" d=" M 83.41 227.29 C 84.78 227.42 86.15 227.55 87.51 227.68 C 87.08 231.30 87.25 235.38 85.17 238.50 C 83.88 238.19 82.61 237.82 81.35 237.39 C 81.70 233.96 82.56 230.62 83.41 227.29 Z" />
<path fill="#b9c762" opacity="1.00" d=" M 75.17 256.34 C 76.44 253.09 77.35 249.73 78.43 246.42 C 79.45 246.52 81.50 246.74 82.52 246.84 C 82.51 248.23 82.30 249.59 81.90 250.92 C 81.16 253.21 80.28 255.46 79.35 257.68 C 77.96 257.23 76.56 256.79 75.17 256.34 Z" />
<path fill="#b9c762" opacity="1.00" d=" M 69.66 267.84 C 70.48 266.09 71.78 264.94 73.83 265.21 C 74.37 265.79 74.91 266.36 75.45 266.94 C 74.61 268.62 73.69 270.26 72.93 271.98 C 72.36 273.24 71.82 274.51 71.30 275.80 C 69.97 275.55 68.63 275.29 67.30 275.06 C 67.30 272.44 68.76 270.20 69.66 267.84 Z" />
<path fill="#b9c762" opacity="1.00" d=" M 61.43 282.41 C 61.81 282.45 62.58 282.52 62.97 282.56 C 63.63 282.92 64.96 283.64 65.63 284.00 C 63.78 287.03 61.79 289.96 59.90 292.95 C 58.62 292.32 57.36 291.66 56.10 291.02 C 57.21 287.77 59.46 285.15 61.43 282.41 Z" />
<path fill="#b9c762" opacity="1.00" d=" M 42.05 304.78 C 43.84 301.78 46.71 299.72 49.11 297.26 C 50.37 298.13 51.61 299.02 52.84 299.94 C 50.29 302.49 47.80 305.10 45.14 307.54 C 44.12 306.61 43.09 305.69 42.05 304.78 Z" />
<path fill="#b9c762" opacity="1.00" d=" M 25.05 314.02 C 27.85 312.60 30.55 310.96 33.18 309.23 C 33.60 309.35 34.43 309.58 34.85 309.70 C 35.36 310.59 35.90 311.46 36.46 312.32 C 33.64 314.39 30.55 316.05 27.53 317.81 C 26.69 316.56 25.83 315.31 25.05 314.02 Z" />
<path fill="#b9c762" opacity="1.00" d=" M 14.89 313.67 C 15.67 313.28 16.44 312.89 17.19 312.45 C 17.13 315.66 18.52 318.45 20.39 320.97 C 19.52 323.88 19.26 326.87 19.87 329.87 C 18.58 329.67 17.29 329.45 16.00 329.23 C 14.68 328.77 13.34 328.41 11.99 328.04 C 8.31 326.84 4.28 326.38 0.99 324.20 C 1.44 323.83 2.36 323.08 2.81 322.71 C 6.80 319.64 11.00 316.86 14.89 313.67 Z" />
</g>
</svg>
