<?xml version="1.0" encoding="UTF-8" ?>
<!DOCTYPE svg PUBLIC "-//W3C//DTD SVG 1.1//EN" "http://www.w3.org/Graphics/SVG/1.1/DTD/svg11.dtd">
<svg width="24pt" height="27pt" viewBox="0 0 24 27" version="1.1" xmlns="http://www.w3.org/2000/svg">
<g id="#b3bb68d5">
<path fill="#b3bb68" opacity="0.84" d=" M 9.33 6.39 C 11.92 4.09 14.12 0.38 18.03 0.55 C 20.87 0.49 23.03 2.69 24.00 5.17 L 24.00 8.09 C 22.40 12.13 18.52 14.53 15.73 17.68 C 13.30 19.78 11.44 23.11 8.01 23.62 C 4.38 23.82 1.92 19.14 4.40 16.38 C 6.46 14.19 8.34 11.40 11.39 10.57 C 10.92 14.27 6.80 15.79 5.14 18.93 C 5.40 19.42 5.92 20.40 6.18 20.88 C 6.66 21.10 7.62 21.53 8.10 21.75 C 12.10 18.93 15.14 15.03 18.73 11.75 C 20.19 10.12 22.57 8.55 21.98 6.02 C 21.61 3.14 17.77 1.55 15.47 3.33 C 12.07 6.32 9.06 9.74 5.76 12.85 C 4.13 14.57 1.85 16.30 1.98 18.93 C 1.63 23.17 6.81 26.57 10.55 24.44 C 13.33 22.54 15.38 19.77 18.02 17.68 C 18.25 18.13 18.70 19.05 18.92 19.51 C 16.03 22.15 13.62 25.57 9.83 27.00 L 6.13 27.00 C 3.19 26.08 0.90 23.85 0.00 20.89 L 0.00 17.19 C 1.90 12.68 6.16 9.92 9.33 6.39 Z" />
</g>
</svg>
